 <svg  version="1.0" xmlns="http://www.w3.org/2000/svg"  width="300.000000pt" height="300.000000pt" viewBox="0 0 300.000000 300.000000"  preserveAspectRatio="xMidYMid meet">  <g transform="translate(0.000000,300.000000) scale(0.100000,-0.100000)" fill="#215b00" stroke="none"> <path d="M1341 2339 c-79 -13 -227 -65 -297 -104 -143 -80 -271 -205 -354 -344 -40 -68 -41 -69 -92 -75 -63 -9 -113 -34 -154 -78 -65 -69 -69 -83 -72 -309 -2 -129 1 -222 8 -247 25 -95 133 -182 224 -182 38 0 43 -4 71 -48 35 -56 75 -67 113 -32 30 28 28 49 -13 134 -56 117 -77 212 -78 351 -1 229 81 425 244 581 164 155 338 225 559 225 221 0 395 -70 559 -225 163 -155 245 -351 244 -581 0 -145 -22 -238 -88 -370 -55 -111 -118 -185 -187 -219 -49 -24 -61 -26 -201 -26 -144 0 -150 1 -179 25 -28 24 -36 25 -149 25 l-119 0 -35 -32 c-49 -46 -57 -97 -21 -133 l26 -26 333 3 332 3 69 34 c91 45 171 127 225 230 l42 81 42 0 c57 0 137 39 175 86 57 69 64 108 60 341 -3 190 -5 211 -24 248 -44 81 -116 131 -205 142 -47 6 -50 8 -80 60 -139 242 -393 418 -669 462 -77 13 -233 12 -309 0z"/> <path d="M1083 1880 c-44 -27 -117 -122 -158 -205 -52 -107 -68 -189 -62 -325 5 -126 27 -206 72 -254 21 -22 32 -26 82 -26 32 0 128 14 213 31 211 41 328 41 540 0 194 -39 268 -40 299 -7 42 45 63 122 68 251 6 141 -9 221 -62 330 -41 83 -114 178 -158 205 -44 27 -119 26 -255 -5 -61 -14 -134 -25 -162 -25 -28 0 -101 11 -162 25 -136 31 -211 32 -255 5z m156 -305 c16 -14 35 -41 41 -60 27 -83 -63 -172 -146 -145 -51 17 -84 63 -84 117 0 38 5 50 34 79 29 29 41 34 79 34 34 0 53 -6 76 -25z m677 -9 c29 -29 34 -41 34 -79 0 -54 -33 -100 -84 -117 -54 -18 -113 11 -138 67 -16 37 -17 49 -8 78 17 52 62 85 117 85 38 0 50 -5 79 -34z"/> </g> </svg> 